<?xml version="1.0" encoding="UTF-8"?>
<svg version="1.1" viewBox="0 0 2048 1704" width="1280" height="1280" xmlns="http://www.w3.org/2000/svg">
<path transform="translate(0)" d="m0 0h2048v1704h-2048z" fill="#FCFCFC"/>
<path transform="translate(0)" d="m0 0h2048v1704h-1477l-15-8-22-8-26-6-19-2h-17l-26 3-49 9h-26l-13-4-20-11-15-5-15-2h-33l-25 1-21-2-13-4-42-21-17-5-15-2-21-1-18-3-24-7-18-8-11-6-9-7-5-5-5-8v-10l4-6 10-8 23-12 24-9 14-5 7-11 7-15-10-6-6-7-4-8-2-10 11 1 9 1v-2l-5-2-10-8-2-2 1-5 7-10-4-4-14-10-13-11-15-15-8-13-5-13-1-5v-8l-5 1h-13l-10-4-9-8-5-8-3-14 4-14 6-9 5 2 4 4v2l4 1-4-11 1-5 10-3h7l10 2v-17l-7-11-2-9v-8l4-13 9-10 4-1 6 10 1-1v-13l7-2 10 1 9 4 8 6 7 11 2 7v11l-4 11-6 7-3 72-1 6 11-6 4-2 11-1 6 9 3 3-1-10 5 1 9 6 7 8 4 10v14l-4 10-3 4v3l14 9 10 9 8 9 7 12 3 10 1 11-2 13-6 15-7 11 22-3 16-3 39-11 30-7 28-5h7l16 50 1 5 8-4 14-10 16-9 16-6 11-2 13 1 14 4h11l12-4 14-8 13-10 31-31 4-2h10l11 6 10 9 15 15 11 9 9 7 12 5 11 1 16-3 13-5 13-7 24-16 10-5 10-3h16l38 6 22 1 10 4 10 9 8 10 6 9v2l9-3 31-13 41-17 14-6-1-8-11-44 1-3 43-9 31-5 11-1h23l14 2 13 4 14 7 13 10 13 11 17 9 20 6 13 2h22l18-4 12-5 13-8 13-9 11-7 19-10 21-7 16-2 13 1 15 4 11 3h8l14-3 16-7 16-10 10-8 6-5h2v-2l6-5 1-22 3-17 9-36 2-13v-14l-5-19-11-31-5-24-2-19-1-24v-90l-3-27-7-32v-18l2-8-8-1-1-4 5-6 5-1 2-4 14-24 4-1 17 6 13 1 2-1-1-9-5-7-14-9-3-1h-12l-23 2-14 3-8 7-3-2-7-19-4-18-2-19v-42l5-44v-22l-4-36v-33l4-23 9-34 19-62 7-16 6-11 8-10 10-7 12-5 4-1h16l2-5 8-8 13-8 17-8 8-1 2 2 4-1 6-4 5-1 5 4 8 12 9 10 9 6 2 1h11l16-8 15-10 14-8h8l8 3 2-5 16-30 25-45 13-24 14-25 13-24 25-45 24-44 10-18 2-6-5-2-22-14-12-9-7-6-7-10-4-9-1-5v-19l3-15 6-15 9-15 12-17 14-17 18-20 12-13 45-45 11-8-1785-1-1 1v1694l3 5h-6z" fill="#403E55"/>
<path transform="translate(1792,4)" d="m0 0h256v1522l-2-2-7-16-8-15-13-21-11-12-8-7-14-7-7-1-12 3-35 15-18 6-17 3-13-1-13-5-10-8-8-11-11-19-13-22-12-16-9-10-9-6-12-5-4-1-28-1-28-4-25-4-10-1h-15l-16 3-16 8-24 16-10 7-18 11-1-4 2-8v-14l-7-43-3-30v-36l3-24 4-19 12-36 6-19 4-21 3-22 13-121 2-24v-34l-3-25-5-23-2-7v-6l2-7 2-28 2-52 7 6 11 9 10 9 11 7 9-1 9-7 11-14 6-12 3-14v-12l-8-149-2-24-4-18-4-9-6-9-9-7-15-6-10-2-16-1-2-1v-6l-8-6-22-12-1-4 10-18 14-25 13-23 13-24 9-16 14-25 25-45 9-16 14-25 6-10 6-11 7-13 4-6 6 2 10 7 11 7 18 12 2 1h11l9-5 7-7 18-27 9-11 12-14 14-15 44-44 8-7 11-11 8-7 10-9 2-3-1-6-7-8-15-9-26-12-17-9-17-12-13-10-13-11-8-7-10-9-8-7-24-24z" fill="#FCFCFC"/>
<path transform="translate(0)" d="m0 0h2048v4l-256 1 29 29 11 9 7 7 11 9 18 14 18 12 23 12 22 10 12 8 7 8 1 6-7 8-12 11-8 7-11 11-8 7-46 46-7 8-13 15-11 15-11 17-9 10-8 5-2 1h-11l-16-10-10-7-11-7-8-5h-2l-9 16-6 10-6 11-13 24-13 23-15 27-9 16-15 27-16 29-9 16-25 45-7 12 1 4 23 12 7 6-1 6 18 1 16 4 12 6 9 8 6 10 4 13 2 11 3 42 7 131v12l-3 14-6 12-8 10-7 8-9 5h-6l-11-7-11-10-11-9-5-5-3 70-2 14-2 8-4 2-7 6-20 12-21 13-26 15-13 6-9 3h-11l-8-3-6-4-7-8-6-11-7-6-7 1-6 9-6 10-9 10-10 5h-7l-9-5-10-9-11-11-9-11-7-8h-2l2 6 4 8v2l-2 1h-18l-23 2-14 3-8 7-3-2-7-19-4-18-2-19v-42l5-44v-22l-4-36v-33l4-23 9-34 19-62 7-16 6-11 8-10 10-7 12-5 4-1h16l2-5 8-8 13-8 17-8 8-1 2 2 4-1 6-4 5-1 5 4 8 12 9 10 9 6 2 1h11l16-8 15-10 14-8h8l8 3 2-5 16-30 25-45 13-24 14-25 13-24 25-45 24-44 10-18 2-6-5-2-22-14-12-9-7-6-7-10-4-9-1-5v-19l3-15 6-15 9-15 12-17 14-17 18-20 12-13 45-45 11-8-1785-1-1 1v1694l3 5h-6z" fill="#565A87"/>
<path transform="translate(686,1197)" d="m0 0h12l33 4 9-1h12l2 1v3l17 2 15 2 4-1h11l8 4 15 2 3 6 21 84 5 21 22 89 5 17 4 18 8 32-1 5-33 14-24 10-33 14h-5l-7-11-8-10-9-8-10-4-22-1-38-6h-16l-15 5-16 10-10 7-14 8-11 5-12 3-14 1-13-4-11-7-11-10-8-7-16-16-14-8h-10l-6 4-31 31-16 11-14 7-7 2h-11l-14-4-13-1-14 3-15 6-14 8-19 13h-3l-12-36-5-16v-3l-2-1-5-17-13-40-12-36-16-49-2-10 11-3 10-8 6-2h13l15-6 40-14 49-17 53-18 7-3 11-8 9-3 10 1 54-19 86-30 15-5 9-7 6-2z" fill="#F7CB70"/>
<path transform="translate(0)" d="m0 0h2048v4l-256 1 29 29 11 9 7 7 11 9 18 14 18 12 23 12 22 10 12 8 7 8 1 6-7 8-12 11-8 7-11 11-8 7-46 46-7 8-13 15-11 15-11 17-9 10-8 5-2 1h-11l-16-10-10-7-11-7-8-5h-2l-9 16-6 10-6 11-13 24-13 23-15 27-9 16-15 27-16 29-9 16-25 45-7 12 1 4 23 12 7 6-1 5-5 5-6 10-7 15-5 15-4 21-1 7v24l2 16 4 13 7 10 5 5 5 7 3 9-1 5-6-5-7-9-33-33-8-10-4-11 1-16 7-25 5-21 3-19v-15l-3-6-5-4h-3l-5 10-3 10-1 13-10-1-7-2 2-7 13-23 11-20v-2h2l2-5 16-30 25-45 13-24 14-25 13-24 25-45 24-44 10-18 2-6-5-2-22-14-12-9-7-6-7-10-4-9-1-5v-19l3-15 6-15 9-15 12-17 14-17 18-20 12-13 45-45 11-8-1785-1-1 1v1694l3 5h-6z" fill="#403E55"/>
<path transform="translate(686,1197)" d="m0 0h12l33 4 9-1h12l2 1v3l17 2 15 2 4-1h11l7 4-3 3-11 5-16 5-7 1 1 2 10-2 13-5 4 1-16 7-15 6-18 6-18 7-29 10-29 11-24 9-29 10-18 6h-3l1-4-12 6-13 4-5 5-9 4-19 7-29 11-26 9-30 11-20 7-33 11-4-1 2-2-4 2-16 6-9 1v2h-4v2l3 1-4 3-6 2 1 9 12 43 12 41 3 13 16-6 84-33 41-16 37-15 35-14h5v-6h-2l-2 4-12 5-5 2-5-1-11-10-2-5v-9l5-7-2-13 4-8 8-5 5-2 3-9 5-5 8-2 16 4h7l7 3 5 4 1 2 6-1h8l6 3 3 3 2 5v9l-7 8-5 4-1 2h-2v2l-7 4h-3l-4-6v-2h-2l-1-4 2 10 5 15 4 2v-2l7-2 10-1h12l6 4 4 5 1 8-3 6-5 5-4 3-2 12-6 8-4 2-3 9-4 5-5 3h-9l-5-2v-2l-6-1-5 3-8 1-8-4-6-8-8-3-8-7-1-3v-10l1-7 13-6 10-2 2 2v-9l-12 5-38 14-16 6-18 7-16 6-21 8-73 29-25 9 2 10 4 13 1 7-1 1-14 3-15 6-14 8-19 13h-3l-12-36-5-16v-3l-2-1-5-17-13-40-12-36-16-49-2-10 11-3 10-8 6-2h13l15-6 40-14 49-17 53-18 7-3 11-8 9-3 10 1 54-19 86-30 15-5 9-7 6-2z" fill="#DDB868"/>
<path transform="translate(849,1312)" d="m0 0 2 4 24 97 5 17 4 18 8 32-1 5-33 14-24 10-33 14h-5l-7-11-8-10-9-8-10-4-22-1-38-6h-16l-15 5-16 10-10 7-14 8-11 5-12 3-14 1-13-4-11-7-11-10-8-7-16-16-14-8h-10l-6 4-31 31-16 11-14 7-7 2h-11l-14-4-12-2-2-7-6-20 1-4 28-10 29-12 74-29 16-6 18-7 23-8 19-7 10-4h2l1 10-3-2-10 2-12 5-1 7v10l3 5 9 6 5 2 5 7 8 4 8-1 5-3 4 1 2 1v2l5 1h9l5-3 4-6 3-7 6-5 4-8 1-9 7-5 4-6 1-7-3-7-5-4-2-1h-12l-17 2v2l-4-1-1-1v-5l16-5 8-3 21-8 55-22 13-5 23-9 20-7 38-15 11-4 3 1z" fill="#F7CB70"/>
<path transform="translate(1466,500)" d="m0 0 5 2 8 11 7 9 9 8 6 3h11l16-8 15-10 14-8h8l7 4-7 14-13 23-7 14 17 3v-13l5-15 4-6 5 1 6 7 1 3v15l-4 24-5 19-6 22-1 16 4 11 8 10 2 4 4 2 30 30 7 9 2 1-1-7-3-7-6-9-5-5-6-9-4-16-1-11v-24l3-19 4-15 6-16 9-17 5-5 2-1 2 1 16 1 16 4 12 6 9 8 6 10 4 13 2 11 3 42 7 131v12l-3 14-6 12-8 10-7 8-9 5h-6l-11-7-11-10-11-9-6-5-7-6-10-10-7-9-10-15-12-16-18-20-12-15-5-10v-6l1-3-13-19-9-14-6-15-3-16-1-10-15 28-9 15-4 1-12-17-6-13-4-15-4-30-4-40-2-39 9-6z" fill="#655DFE"/>
<path transform="translate(1387,534)" d="m0 0h15l-5 19-3 25-2 38v19l4 112v51l-3 36-5 29-4 13-8 12 1 7 4 9 2 9 5 10v2l-2 1h-18l-23 2-14 3-8 7-3-2-7-19-4-18-2-19v-42l5-44v-22l-4-36v-33l4-23 9-34 19-62 7-16 6-11 8-10 10-7 12-5z" fill="#655DFE"/>
<path transform="translate(1536,313)" d="m0 0h17l11 4 8 6 12 12 8 10 13 15 4 6v7l-1 3-1 21-3 5-1 18-4 6-8 5-7 3-2-7-1-9-6 4h-5l-5-6-2-6-2-9h-10l-5 1-47 1-12 3-11 6-6 7-3 6-5-2-4-1-1 22h-3l-11-11-11-15-5-10-1-3v-11l3-8 1-4v-12l5-10 12-12 10-8 17-14 11-7 4-2 31-2z" fill="#403F56"/>
<path transform="translate(1717,245)" d="m0 0 10 2 10 4 6 3v3l-1 3-3 3-8 14-6 10-6 11-13 24-13 23-15 27-9 16-15 27-16 29-9 16-25 45-7 12 1 4 23 12 7 6-1 5-5 5-6 10-7 15-5 15-4 21-1 7v24l2 16 4 13 7 10 5 5 5 7 3 9-1 5-6-5-7-9-33-33-8-10-4-11 1-16 7-25 5-21 3-19v-15l-3-6-5-4h-3l-5 10-3 10-1 13-10-1-7-2 2-7 13-23 11-20v-2h2l2-5 16-30 25-45 13-24 14-25 13-24 25-45 24-44 10-18z" fill="#5E6283"/>
<path transform="translate(1551,400)" d="m0 0h10l2 3 2 11 4 6 1 1 7-1 4-2 3 17-2 14-5 12-8 13-11 12-2 11 1 11-11 6-21 14-13 6h-11l-10-6-9-9-11-16-4-3 2-11 2-8v-7l-7-10-7-17-1-5 1-20 3-1 7 4 2-6 7-8 14-7 9-2 47-1z" fill="#FDBEC3"/>
<path transform="translate(0)" d="m0 0h2048v4l-256 1h-3l-1785-1-1 1v1694l3 5h-6z" fill="#088EE8"/>
<path transform="translate(2044,1544)" d="m0 0h4v160h-239l3-2 54-11 52-13 37-12 24-10 20-10 12-8 10-9 6-10 2-6v-12l-4-10-7-10-9-8-13-8-15-8v-2l27-6 24-4z" fill="#FCFCFC"/>
<path transform="translate(1466,500)" d="m0 0 5 2 8 11 7 9 9 8 6 3h11l16-8 15-10 14-8h8l7 4-7 14-13 23-6 12-1 3-10 3-8 6-5 10-5 21-2 13-10 18-14 25-2 2-4-1-11-16-6-13-4-15-4-30-4-40-2-39 9-6z" fill="#645DFE"/>
<path transform="translate(1393,1565)" d="m0 0 15 2 12 5 10 6 7 5 5-2 3 7 3 17v13l-4 11-5 6-2 1h-10l-19-7h-6l-11 8-10 10-12 5-21 3-15 1h-32l-7-2-3-5 1-6 5-5 15-9 16-8 15-8 8-6 6-7 7-14 4-14 6-4 8-2z" fill="#575A87"/>
<path transform="translate(1560,1560)" d="m0 0 5 1 11 6 3 7 3 9 10 14 9 10 13 17 6 11 4 10 2 10v6l-3 2-30 5-9 1h-12l-13-4-9-6-6-8-4-7-8-3-14-1-1-1v-14l3-24 3-14 18-11 13-10z" fill="#575A87"/>
<path transform="translate(1571,531)" d="m0 0 5 1 6 7 1 3v15l-4 24-5 19-6 22-1 16 4 11 8 10 2 4-5 5-7 8-6 12-7 5-8 1-9-13-14-21-6-14-3-11-1-8v-17l3-17 5-16 6-8 8-5 10-2 15 3v-13l5-15z" fill="#FDBEC2"/>
<path transform="translate(806,1677)" d="m0 0h8l38 10 42 9 34 7v1h-317l4-3 14-6 16-8 12-4 18-3 14-1 13 3 16-3h71z" fill="#FCFCFC"/>
<path transform="translate(1594,521)" d="m0 0 6 1 21 11 7 6-1 5-5 5-6 10-7 15-5 15-4 21-1 7v24l2 16 4 13 7 10 5 5 5 7 3 9-1 5-6-5-7-9-33-33-8-10-4-11 1-16 7-25 5-21 3-19 1-19 8-8z" fill="#575A87"/>
<path transform="translate(1514,616)" d="m0 0h1l2 19 5 16 2 7-3-1-3 7-3 8h-3v2h-2l-1 4h-2l-2 5-6 10-6 11-9 16-6 11-14 27-7 13-8 9-5 3h-8l-5-1-1-7 2-7 2-6 8-16 15-27 14-25 9-17 7-14 2-1 8-16 9-16z" fill="#5E6082"/>
<path transform="translate(663,1393)" d="m0 0h12l6 4 4 5 1 8-3 6-5 5-4 3-2 12-6 8-4 2-3 9-4 5-5 3h-9l-5-2v-2l-6-1-5 3-8 1-8-4-6-8-8-3-8-7-1-3v-10l1-7 13-6 10-2 2 2 2-1 6 15 4 4 5 2 9-1 7-6 2-4v-7l-5-17 1-2 3 1v-2l7-2z" fill="#DDB868"/>
<path transform="translate(1391,672)" d="m0 0h2l3 75v51l-3 36-5 29-4 13-8 12h-2l-4-20-1-9v-30l3-31 6-37 3-15 1-9v-11l-2-25v-12l3-8z" fill="#FDFDFD"/>
<path transform="translate(116,1367)" d="m0 0h5l6 9 3 3-1-10 5 1 9 6 7 8 4 10v14l-4 10-4 7-11 6-9 3h-12l-10-4-8-6-6-8-3-8v-13l4-11 4-7 4-3 11-6z" fill="#44ADAB"/>
<path transform="translate(604,1331)" d="m0 0 10 2 8 2h7l7 3 5 4 1 2 6-1h8l6 3 3 3 2 5v9l-7 8-5 4-1 2h-2v2l-7 4h-3l-4-6v-2h-2l-9-18-4-3-3-1h-7l-8 4-3 5-1 8 7 23-1 5-3 3-14 5-6 1-12-11-2-5v-9l5-7-2-13 4-8 8-5 5-2 3-9 5-5z" fill="#DDB868"/>
<path transform="translate(73,1240)" d="m0 0 10 1 9 4 8 6 7 11 2 7v11l-4 11-9 10-10 5-4 1h-12l-12-4-6-4-7-10-2-5-1-6v-8l4-13 9-10 4-1 6 10 1-1v-13z" fill="#44ADAA"/>
<path transform="translate(113,1531)" d="m0 0 1 2h9l19 5 15 6 13 3 14 2 1 5-4 13-4 6-12 4-19 3-39 3h-13l-7-4 1-8 8-14 7-11 1-3 5-5z" fill="#5E6182"/>
<path transform="translate(34,1313)" d="m0 0h7l10 2v2l6 2 7 6 4 6 3 9v13l-4 10-6 8-9 6-8 3h-13l-10-4-9-8-5-8-3-14 4-14 6-9 5 2 4 4v2l4 1-4-11 1-5z" fill="#44ADAB"/>
<path transform="translate(126,1451)" d="m0 0h12l12 5 8 7 4 6 3 11v8l-3 10-8 11-8 5-10 3h-9l-9-2-9-6-6-8-4-9-1-7 11 1 9 1v-2l-5-2-10-8-2-2 1-5 7-10v-2l6-1z" fill="#44ACAA"/>
<path transform="translate(613,1352)" d="m0 0h7l6 3 4 5 5 14 12 38 1 4v7l-4 6-6 5-9 1-8-4-6-12-9-29-6-20 1-8 4-6z" fill="#413F56"/>
<path transform="translate(1368,925)" d="m0 0h12l10 5 10 8 4 8v6l-3 2-13-1-17-6h-4l-2 5-8 14-6 9-7 3-3-5-5-6-4-19v-18l13-3z" fill="#FCBEC1"/>
<path transform="translate(1486,1246)" d="m0 0 2 1 2 79 1 34v32l-7-6-7-8v-46l1-17 6-25 1-8z" fill="#FCFCFC"/>
<path transform="translate(846,1305)" d="m0 0 3 4v5l-6 1-31 12-15 6-20 7-23 9-13 5-12 5-16 6-27 11-24 9-18 6h-3l-1 2-1-5 9-3 25-10 23-9 42-16 70-28 29-12 8-2z" fill="#DDB868"/>
<path transform="translate(854,1443)" d="m0 0h12l8 7 2 6-1 8-5 7-8 4h-9l-8-5-4-8 1-8 4-6 5-4z" fill="#413F57"/>
<path transform="translate(808,1256)" d="m0 0 8 1 8 6 3 7-1 7-4 6-5 4-5 2h-7l-8-4-5-8v-7l3-6 7-6z" fill="#413F57"/>
<path transform="translate(402,1412)" d="m0 0h11l6 4 4 5 1 2v9l-6 8-8 4h-7l-8-4-4-5-1-2v-9l4-6 6-5z" fill="#413F56"/>
<path transform="translate(330,1344)" d="m0 0 10 1 6 4-5 5-11 5-15 4h-7l-1-5 4-5 12-7z" fill="#43425A"/>
<path transform="translate(386,1353)" d="m0 0h12l4 2v5l-3 3-16 6-9 2h-8l-1-4 6-7 11-6z" fill="#434159"/>
<path transform="translate(1548,503)" d="m0 0 5 1-1 5-7 6-11 7-10 5h-10l-1-2 4-5 14-9 7-3h3l1-3z" fill="#DFB96F"/>
<path transform="translate(585,1283)" d="m0 0h9l5 2 1 3-4 4-13 5-12 3-7-1v-4l7-6 10-5z" fill="#43425A"/>
<path transform="translate(790,1207)" d="m0 0h11l7 4-3 3-11 5-16 5-6 1-2-3 4-6 8-6z" fill="#44445B"/>
<path transform="translate(294,1329)" d="m0 0h9l5 2 2 2-1 4-12 6-12 3h-5l-3-5 5-5 8-6z" fill="#44455C"/>
<path transform="translate(740,1200)" d="m0 0h12l2 1-1 4-8 6-13 4-8-1-3-3 5-5 6-4z" fill="#44435A"/>
<path transform="translate(671,1198)" d="m0 0h13l1 3-2 4-8 5-5 2h-11l-2-2 1-5 7-5z" fill="#44445B"/>
<path transform="translate(1601,670)" d="m0 0 6 3 5 7 5 5 5 7 3 9-1 5-6-5-3-7-13-13-4-8v-2z" fill="#5A6382"/>
<path transform="translate(491,1260)" d="m0 0 7 1 4 2-1 4-9 4-13 4h-11v-2l14-10z" fill="#44475D"/>
<path transform="translate(1483,510)" d="m0 0 7 4 8 8 1 3-4 4-5-2-8-8-2-4h2l-1-4z" fill="#DDB86A"/>
<path transform="translate(794,1218)" d="m0 0 3 1-4 3-18 6-4-1v-2l20-6z" fill="#F2C86F"/>
<path transform="translate(491,1260)" d="m0 0 7 1-2 1v2l-3 2-6 2-8 2v-2l3-2 6-2z" fill="#576079"/>
<path transform="translate(1614,681)" d="m0 0 4 1 4 5v5l-5-5z" fill="#FDFDFD"/>
<path transform="translate(333,1543)" d="m0 0 7 3-1 3-5 1z" fill="#EFC56E"/>
<path transform="translate(489,1263)" d="m0 0 2 3-10 4h-2v-2l3-2 6-2z" fill="#575A87"/>
</svg>
